<svg xmlns="http://www.w3.org/2000/svg" viewBox="0 0 120 120">
  <rect width="120" height="120" rx="24" fill="#1d1d1f"/>
  <g transform="translate(37.5, 30) scale(2.5)">
    <path fill="#fff" d="M9.436,2.742A3.857,3.857,0,0,0,10.316,0a3.769,3.769,0,0,0-2.51,1.311,3.622,3.622,0,0,0-.9,2.631,3.138,3.138,0,0,0,2.53-1.2m.82,1.381c-1.4-.081-2.58.8-3.25.8s-1.69-.756-2.79-.736a4.117,4.117,0,0,0-3.5,2.147c-1.5,2.6-.4,6.473,1.06,8.59.71,1.006,1.56,2.205,2.69,2.166s1.48-.7,2.77-.7,1.67.7,2.79.675,1.9-1.008,2.6-2.1a9.317,9.317,0,0,0,1.17-2.42,3.814,3.814,0,0,1-2.27-3.468,3.9,3.9,0,0,1,1.83-3.256,3.991,3.991,0,0,0-3.1-1.7"/>
  </g>
  <text x="60" y="100" text-anchor="middle" font-family="Arial,Helvetica,sans-serif" font-size="18" font-weight="600" fill="#fff" letter-spacing="0.5">tv+</text>
</svg>
