<svg xmlns="http://www.w3.org/2000/svg" viewBox="0 0 120 120">
  <rect width="120" height="120" rx="24" fill="#000"/>
  <g transform="translate(15, 35) scale(0.17)">
    <!-- HBO text -->
    <path fill="#fff" d="M0 0h44v174h-44v-72H-1v72h-44V0h44v62h1zM72 0h62c28 0 50 18 50 44 0 16-8 30-22 38 18 8 28 24 28 44 0 28-24 48-56 48H72zm44 72h14c8 0 14-6 14-14s-6-14-14-14h-14zm0 62h18c10 0 18-8 18-18s-8-18-18-18h-18z"/>
    <path fill="#fff" d="M260 0c50 0 88 38 88 88s-38 86-88 86-88-36-88-86S210 0 260 0zm0 130c24 0 42-18 42-42s-18-42-42-42-42 18-42 42 18 42 42 42z"/>
  </g>
  <g transform="translate(20, 78)">
    <text font-family="Arial,Helvetica,sans-serif" font-size="22" font-weight="bold" fill="#B48BEB" letter-spacing="1">Max</text>
  </g>
</svg>
